Coordinates
version=1
nRows=10
nColumns=40
inDegrees=yes

Units are S.I. units (second, meters, Newtons, ...)
If the header above contains a line with 'inDegrees', this indicates whether rotational values are in degrees (yes) or radians (no).

endheader
time	pelvis_tilt	pelvis_list	pelvis_rotation	pelvis_tx	pelvis_ty	pelvis_tz	hip_flexion_r	hip_adduction_r	hip_rotation_r	knee_angle_r	knee_angle_r_beta	ankle_angle_r	subtalar_angle_r	mtp_angle_r	hip_flexion_l	hip_adduction_l	hip_rotation_l	knee_angle_l	knee_angle_l_beta	ankle_angle_l	subtalar_angle_l	mtp_angle_l	lumbar_extension	lumbar_bending	lumbar_rotation	arm_flex_r	arm_add_r	arm_rot_r	elbow_flex_r	pro_sup_r	wrist_flex_r	wrist_dev_r	arm_flex_l	arm_add_l	arm_rot_l	elbow_flex_l	pro_sup_l	wrist_flex_l	wrist_dev_l
      0.81000000	    -10.99582972	     -1.91473394	     -1.17581948	      0.18354664	      0.86820066	     -1.18648408	     26.75330682	    -20.92897669	    -21.90623135	     32.74656101	      0.57153531	      4.47601964	     -9.29062276	      0.00000000	     26.16214387	    -28.08566166	    -30.16390441	     30.64822144	      0.53491237	      8.06629567	     11.49804891	      0.00000000	    -13.33264242	      0.28999844	     -0.26355825	     44.99524193	    -14.99997600	     44.99524193	     75.00017605	     45.00000026	      0.00000000	      0.00000000	     44.99524193	    -14.99997600	     44.99524193	     75.00017605	     45.00000026	      0.00000000	      0.00000000
      0.81500000	    -11.13639995	     -1.99411356	     -1.24748738	      0.18266904	      0.86644409	     -1.18627132	     27.33925031	    -20.98302081	    -21.71452516	     33.46212711	      0.58402429	      4.76399814	     -9.32761772	      0.00000000	     26.77338645	    -28.46229136	    -29.95441599	     31.47816892	      0.54939769	      8.39529437	     11.43414565	      0.00000000	    -13.32304697	      0.32875395	     -0.18603918	     44.99530585	    -14.99997648	     44.99530585	     75.00017605	     45.00000026	      0.00000000	      0.00000000	     44.99530585	    -14.99997648	     44.99530585	     75.00017605	     45.00000026	      0.00000000	      0.00000000
      0.82000000	    -11.20180210	     -1.97067720	     -1.26703500	      0.18172435	      0.86492691	     -1.18613551	     27.84216833	    -21.15267781	    -21.51392803	     34.14667624	      0.59597193	      4.97867621	     -9.44956755	      0.00000000	     27.22299428	    -28.58781773	    -29.58965981	     32.04107541	      0.55922226	      8.56728399	     11.06878027	      0.00000000	    -13.42037825	      0.27311029	     -0.14885418	     44.99535775	    -14.99997686	     44.99535775	     75.00017604	     45.00000026	      0.00000000	      0.00000000	     44.99535775	    -14.99997686	     44.99535775	     75.00017604	     45.00000026	      0.00000000	      0.00000000
      0.82500000	    -11.48883657	     -2.19538832	     -1.38870788	      0.18085614	      0.86271589	     -1.18584964	     28.57913788	    -21.04383420	    -21.37174073	     34.88782925	      0.60890749	      5.32458388	     -9.42716144	      0.00000000	     28.10158794	    -29.25903439	    -29.50005697	     33.13254539	      0.57827201	      9.05685744	     11.33564424	      0.00000000	    -13.23541139	      0.45446826	     -0.02434335	     44.99541234	    -14.99997727	     44.99541234	     75.00017604	     45.00000026	      0.00000000	      0.00000000	     44.99541234	    -14.99997727	     44.99541234	     75.00017604	     45.00000026	      0.00000000	      0.00000000
      0.83000000	    -11.53441000	     -2.18820863	     -1.39067353	      0.17992901	      0.86110734	     -1.18574675	     29.06293854	    -21.20882198	    -21.16948104	     35.62183099	      0.62171824	      5.56083835	     -9.58287923	      0.00000000	     28.55622109	    -29.41134365	    -29.16908870	     33.73163161	      0.58872803	      9.28904159	     11.01241737	      0.00000000	    -13.32172768	      0.42961165	      0.01804668	     44.99546558	    -14.99997766	     44.99546558	     75.00017603	     45.00000026	      0.00000000	      0.00000000	     44.99546558	    -14.99997766	     44.99546558	     75.00017603	     45.00000026	      0.00000000	      0.00000000
      0.83500000	    -11.86332510	     -2.54733414	     -1.48720727	      0.17901598	      0.85886336	     -1.18554412	     29.74186531	    -20.94893885	    -21.15760857	     36.20238322	      0.63185078	      5.77567004	     -9.63119946	      0.00000000	     29.55750529	    -30.19097909	    -28.89599265	     34.82342819	      0.60778348	      9.76616072	     11.30082655	      0.00000000	    -13.14075701	      0.79158123	      0.22893691	     44.99553671	    -14.99997819	     44.99553671	     75.00017603	     45.00000026	      0.00000000	      0.00000000	     44.99553671	    -14.99997819	     44.99553671	     75.00017603	     45.00000026	      0.00000000	      0.00000000
      0.84000000	    -11.90658035	     -2.56326238	     -1.52087834	      0.17810999	      0.85722686	     -1.18540168	     30.19713482	    -21.07840040	    -21.00507097	     36.85935226	      0.64331706	      6.02001174	     -9.66187999	      0.00000000	     30.01078580	    -30.42157894	    -28.67949959	     35.47955939	      0.61923513	     10.01933508	     11.18801852	      0.00000000	    -13.27789901	      0.75999363	      0.25236518	     44.99557946	    -14.99997851	     44.99557946	     75.00017602	     45.00000026	      0.00000000	      0.00000000	     44.99557946	    -14.99997851	     44.99557946	     75.00017602	     45.00000026	      0.00000000	      0.00000000
      0.84500000	    -12.04764093	     -2.63757443	     -1.61107078	      0.17718548	      0.85528634	     -1.18509350	     30.79040746	    -21.12198781	    -20.83432901	     37.57027163	      0.65572494	      6.34853845	     -9.69726456	      0.00000000	     30.60926757	    -30.79994156	    -28.49340263	     36.25620030	      0.63279007	     10.36034377	     11.16321244	      0.00000000	    -13.28145007	      0.74044530	      0.34599873	     44.99562514	    -14.99997884	     44.99562514	     75.00017602	     45.00000026	      0.00000000	      0.00000000	     44.99562514	    -14.99997884	     44.99562514	     75.00017602	     45.00000026	      0.00000000	      0.00000000
      0.85000000	    -12.44134671	     -3.00590107	     -1.66879906	      0.17624630	      0.85282960	     -1.18498670	     31.54242694	    -20.89010927	    -20.85707800	     38.22992969	      0.66723815	      6.59005551	     -9.75243286	      0.00000000	     31.71530683	    -31.51599861	    -28.08328723	     37.26061727	      0.65032045	     10.72881596	     11.27610719	      0.00000000	    -12.99912795	      1.17842462	      0.53864826	     44.99568545	    -14.99997929	     44.99568545	     75.00017601	     45.00000026	      0.00000000	      0.00000000	     44.99568545	    -14.99997929	     44.99568545	     75.00017601	     45.00000026	      0.00000000	      0.00000000
      0.85500000	    -12.59631914	     -3.10471236	     -1.72053368	      0.17537653	      0.85085055	     -1.18482007	     32.10973547	    -20.94921533	    -20.78213064	     38.92065572	      0.67929359	      6.90387857	     -9.67691920	      0.00000000	     32.35442085	    -31.88460668	    -27.85556810	     38.01318836	      0.66345530	     11.02103550	     11.29182622	      0.00000000	    -12.99990343	      1.21837047	      0.55574511	     44.99584438	    -14.99998047	     44.99584438	     75.00017600	     45.00000026	      0.00000000	      0.00000000	     44.99584438	    -14.99998047	     44.99584438	     75.00017600	     45.00000026	      0.00000000	      0.00000000
